<svg enable-background="new 0 0 1920 469.3" viewBox="0 0 1920 469.3" xmlns="http://www.w3.org/2000/svg" xmlns:xlink="http://www.w3.org/1999/xlink"><linearGradient id="a"><stop offset="0" stop-color="#2d755c"/><stop offset="1" stop-color="#72b577"/></linearGradient><linearGradient id="b" gradientUnits="userSpaceOnUse" x1="123.11" x2="198.7207" xlink:href="#a" y1="154.5279" y2="154.5279"/><linearGradient id="c" gradientUnits="userSpaceOnUse" x1="243.9987" x2="266.7106" xlink:href="#a" y1="144.9209" y2="144.9209"/><linearGradient id="d" gradientUnits="userSpaceOnUse" x1="125.5423" x2="412.5087" xlink:href="#a" y1="257.498" y2="113.3943"/><path d="m134.9 126.5c.6-3 3.7-4.9 6.6-4 10.7 3.3 20.6 6.6 30.6 9.2 7.6 2 15.4 3.6 23.4 5.3 3.8.8 4.2 5.9.7 7.4-26.2 10.7-50 24.6-71.7 42.3-.8-.5-.8-.5-1.5-.9 4-19.6 7.9-39.2 11.9-59.3z" fill="url(#b)"/><path d="m266.7 142.9c.1 5.5-4.4 9.9-10.1 9.8-6.4-.1-12.5-5.4-12.6-11-.1-5.3 5.6-4.4 11.4-4.5 6.2-.2 11.2-.1 11.3 5.7z" fill="url(#c)"/><path d="m117.5 23.1 192.9 5.6s126.5 13.7 125.4 150.8c0 0-6.4 133.1-140.9 138.3l-75.1-2.2.6 133h-13.3s-41.8 2.3-67.2-24.5c0 0-25.4-19.8-23.5-66.9l.1-26.4s-5.3-79.5 91.4-107.9l28.9-7s27-4.9 38-9.2c1.4-.6 2.9-1.1 4.3-1.5 7-2.1 26.5-7.9 32.4-8 3.2-.3 6.5-.1 9.6.7l11.5 2.9c2.5.6 4.7-2 3.5-4.3l-3.6-7.3s-6.2-10.4-9.6-13c-3.4-2.7-12.5-10.9-13.7-21.3-1.2-10.3-23.6-38.6-46.3-42.3 0 0-11-3.2-41.5-.5s-49.1-5.5-49.1-5.5-52.4-25.9-54-58.1l-3.6-22.1c-.3-1.8 1.1-3.3 2.8-3.3z" fill="url(#d)"/><g enable-background="new" fill="#253039"><path d="m526.5 268.7v-174.2h71.5c12.6 0 22.2.5 28.8 1.7 9.3 1.4 17.1 4.1 23.4 8.1s11.3 9.6 15.2 16.8c3.8 7.2 5.8 15.1 5.8 23.8 0 14.8-5.1 27.3-15.4 37.6-10.2 10.3-28.8 15.4-55.6 15.4h-48.6v70.8zm25-91.4h49c16.2 0 27.7-2.8 34.5-8.3s10.2-13.3 10.2-23.4c0-7.3-2-13.5-6-18.7s-9.3-8.6-15.8-10.3c-4.2-1-12-1.5-23.4-1.5h-48.5z"/><path d="m699.5 268.7v-174.2h23.3v174.1h-23.3z"/><path d="m750.1 205.6c0-23.4 7.1-40.7 21.2-51.9 11.8-9.3 26.2-14 43.2-14 18.9 0 34.3 5.7 46.2 17 12 11.4 18 27.1 18 47.1 0 16.2-2.7 29-8 38.3s-13 16.5-23.1 21.7-21.2 7.7-33.1 7.7c-19.2 0-34.7-5.7-46.6-17s-17.8-27.6-17.8-48.9zm23.9 0c0 16.2 3.8 28.2 11.5 36.3s17.3 12.1 28.9 12.1c11.5 0 21.1-4 28.8-12.1s11.5-20.4 11.5-36.9c0-15.6-3.9-27.4-11.6-35.5-7.7-8-17.3-12.1-28.8-12.1-11.6 0-21.3 4-28.9 12-7.5 8-11.4 20-11.4 36.2z"/><path d="m944.1 268.7-52.2-126.2h24.5l29.5 75.5c3.2 8.2 6.1 16.6 8.8 25.4 2.1-6.7 5-14.7 8.7-24l30.5-77h23.9l-51.9 126.2z"/><path d="m1132.2 228 24 2.7c-3.8 12.9-10.8 22.9-21.1 30.1-10.2 7.1-23.3 10.7-39.3 10.7-20.1 0-36-5.7-47.7-17.1-11.8-11.4-17.6-27.3-17.6-47.8 0-21.2 5.9-37.7 17.8-49.4s27.3-17.6 46.2-17.6c18.3 0 33.3 5.7 45 17.2s17.4 27.6 17.4 48.5c0 1.3 0 3.2-.1 5.7h-102.3c.9 13.9 5.1 24.5 12.8 31.8 7.7 7.4 17.2 11 28.7 11 8.5 0 15.8-2.1 21.8-6.2 6.1-4 10.8-10.5 14.4-19.6zm-76.4-34.5h76.6c-1-10.6-4-18.6-8.8-23.9-7.4-8.2-17-12.3-28.8-12.3-10.7 0-19.7 3.3-26.9 9.9s-11.3 15.3-12.1 26.3z"/><path d="m1185.2 268.7v-126.2h20.9v19.1c5.3-9 10.3-14.8 14.8-17.7 4.5-2.8 9.5-4.3 14.9-4.3 7.8 0 15.8 2.3 23.9 6.9l-8 19.8c-5.7-3.1-11.4-4.6-17.1-4.6-5.1 0-9.7 1.4-13.7 4.2-4.1 2.8-6.9 6.7-8.7 11.7-2.6 7.6-3.9 15.9-3.9 25v66z"/></g><g enable-background="new" fill="none" stroke="#253039" stroke-miterlimit="10" stroke-width="2"><path d="m526.5 268.7v-174.2h71.5c12.6 0 22.2.5 28.8 1.7 9.3 1.4 17.1 4.1 23.4 8.1s11.3 9.6 15.2 16.8c3.8 7.2 5.8 15.1 5.8 23.8 0 14.8-5.1 27.3-15.4 37.6-10.2 10.3-28.8 15.4-55.6 15.4h-48.6v70.8zm25-91.4h49c16.2 0 27.7-2.8 34.5-8.3s10.2-13.3 10.2-23.4c0-7.3-2-13.5-6-18.7s-9.3-8.6-15.8-10.3c-4.2-1-12-1.5-23.4-1.5h-48.5z"/><path d="m699.5 268.7v-174.2h23.3v174.1h-23.3z"/><path d="m750.1 205.6c0-23.4 7.1-40.7 21.2-51.9 11.8-9.3 26.2-14 43.2-14 18.9 0 34.3 5.7 46.2 17 12 11.4 18 27.1 18 47.1 0 16.2-2.7 29-8 38.3s-13 16.5-23.1 21.7-21.2 7.7-33.1 7.7c-19.2 0-34.7-5.7-46.6-17s-17.8-27.6-17.8-48.9zm23.9 0c0 16.2 3.8 28.2 11.5 36.3s17.3 12.1 28.9 12.1c11.5 0 21.1-4 28.8-12.1s11.5-20.4 11.5-36.9c0-15.6-3.9-27.4-11.6-35.5-7.7-8-17.3-12.1-28.8-12.1-11.6 0-21.3 4-28.9 12-7.5 8-11.4 20-11.4 36.2z"/><path d="m944.1 268.7-52.2-126.2h24.5l29.5 75.5c3.2 8.2 6.1 16.6 8.8 25.4 2.1-6.7 5-14.7 8.7-24l30.5-77h23.9l-51.9 126.2z"/><path d="m1132.2 228 24 2.7c-3.8 12.9-10.8 22.9-21.1 30.1-10.2 7.1-23.3 10.7-39.3 10.7-20.1 0-36-5.7-47.7-17.1-11.8-11.4-17.6-27.3-17.6-47.8 0-21.2 5.9-37.7 17.8-49.4s27.3-17.6 46.2-17.6c18.3 0 33.3 5.7 45 17.2s17.4 27.6 17.4 48.5c0 1.3 0 3.2-.1 5.7h-102.3c.9 13.9 5.1 24.5 12.8 31.8 7.7 7.4 17.2 11 28.7 11 8.5 0 15.8-2.1 21.8-6.2 6.1-4 10.8-10.5 14.4-19.6zm-76.4-34.5h76.6c-1-10.6-4-18.6-8.8-23.9-7.4-8.2-17-12.3-28.8-12.3-10.7 0-19.7 3.3-26.9 9.9s-11.3 15.3-12.1 26.3z"/><path d="m1185.2 268.7v-126.2h20.9v19.1c5.3-9 10.3-14.8 14.8-17.7 4.5-2.8 9.5-4.3 14.9-4.3 7.8 0 15.8 2.3 23.9 6.9l-8 19.8c-5.7-3.1-11.4-4.6-17.1-4.6-5.1 0-9.7 1.4-13.7 4.2-4.1 2.8-6.9 6.7-8.7 11.7-2.6 7.6-3.9 15.9-3.9 25v66z"/></g><g enable-background="new" fill="#253039"><path d="m1435.4 220.8 21.2 4c-4.4 12.9-12.4 22.7-24 29.5s-25.7 10.2-42.4 10.2c-17.3 0-31.3-2.6-42.1-7.8s-19.1-12.7-24.7-22.6c-5.7-9.9-8.5-20.5-8.5-31.8 0-12.3 3.2-23.1 9.6-32.3s15.4-16.2 27.2-21 24.7-7.2 38.9-7.2c16 0 29.5 3 40.4 9.1 10.9 6 18.6 14.5 22.8 25.5l-20.9 3.6c-3.7-8.6-9.1-14.9-16.2-18.8s-16-5.9-26.7-5.9c-12.3 0-22.6 2.2-30.9 6.5s-14.1 10.2-17.4 17.6-5 15-5 22.8c0 10.1 2 18.9 6 26.4s10.2 13.2 18.5 16.9 17.4 5.6 27.2 5.6c11.9 0 21.9-2.5 30.2-7.6 8.3-5.2 13.9-12.7 16.8-22.7z"/><path d="m1483.1 262.4v-118.6h71.1c14.3 0 25.1 1.1 32.6 3.2 7.4 2.1 13.4 5.9 17.8 11.3s6.7 11.3 6.7 17.9c0 8.4-3.7 15.5-11 21.3s-18.7 9.4-34.1 11c5.6 2 9.9 4 12.8 5.9 6.2 4.2 12.1 9.5 17.6 15.8l27.9 32.3h-26.7l-21.2-24.7c-6.2-7.1-11.3-12.6-15.3-16.3-4-3.8-7.6-6.4-10.8-7.9s-6.4-2.6-9.7-3.2c-2.4-.4-6.3-.6-11.8-.6h-24.6v52.7zm21.2-66.3h45.6c9.7 0 17.3-.7 22.7-2.2s9.6-3.9 12.5-7.1 4.3-6.8 4.3-10.6c0-5.6-2.8-10.2-8.2-13.8-5.5-3.6-14.2-5.4-26.1-5.4h-50.7z"/><path d="m1643.8 262.4v-118.6h31.9l37.9 84c3.5 7.8 6.1 13.7 7.7 17.6 1.8-4.3 4.7-10.7 8.5-19l38.4-82.5h28.5v118.6h-20.4v-99.3l-46.6 99.3h-19.1l-46.3-101v101z"/></g></svg>